<svg width="239" height="240" viewBox="0 0 239 240" fill="none" xmlns="http://www.w3.org/2000/svg">
<path d="M130.126 239.956C192.001 239.956 242.161 233.03 242.161 224.487C242.161 215.943 192.001 209.017 130.126 209.017C68.2505 209.017 18.0908 215.943 18.0908 224.487C18.0908 233.03 68.2505 239.956 130.126 239.956Z" fill="#2E47A7"/>
<path d="M117.963 23.0853C121.998 23.0853 125.269 17.9175 125.269 11.5427C125.269 5.16789 121.998 6.10352e-05 117.963 6.10352e-05C113.927 6.10352e-05 110.656 5.16789 110.656 11.5427C110.656 17.9175 113.927 23.0853 117.963 23.0853Z" fill="white"/>
<path d="M208.296 17.7822C209.603 13.2205 208.29 8.84354 205.365 8.00584C202.44 7.16815 199.009 10.187 197.703 14.7486C196.397 19.3102 197.709 23.6872 200.635 24.5249C203.56 25.3626 206.99 22.3438 208.296 17.7822Z" fill="white"/>
<path d="M34.3665 38.8384C37.4814 38.0212 39.0304 33.6382 37.8263 29.0485C36.6222 24.4588 33.121 21.4006 30.0062 22.2178C26.8913 23.0349 25.3423 27.4181 26.5464 32.0077C27.7505 36.5974 31.2516 39.6555 34.3665 38.8384Z" fill="white"/>
<path d="M84.7163 223.904C80.0636 223.904 74.9348 222.916 69.4491 220.977C60.7267 217.895 54.9673 212.599 52.3494 205.257C46.3519 188.408 59.2392 166.941 59.7866 166.036C60.2388 165.287 61.048 164.858 61.8809 164.858C62.2498 164.858 62.6187 164.941 62.9757 165.12L88.2981 177.793C88.9169 178.102 89.3691 178.662 89.5594 179.316C89.7498 179.983 89.6427 180.697 89.2738 181.28C84.9662 188.134 83.5144 193.239 85.0614 196.035C86.7392 199.07 92.2607 199.7 96.604 199.7H96.723C101.78 199.7 105.303 203.234 105.303 208.304C105.303 212.052 103.327 215.991 100.031 218.847C97.3656 221.155 92.5463 223.904 84.7163 223.904Z" fill="white"/>
<path d="M61.8813 167.309L87.2037 179.982C79.1953 192.739 79.112 202.151 96.6044 202.151C96.6401 202.151 96.6877 202.151 96.7353 202.151H96.7591C107.385 202.151 104.601 221.464 84.7286 221.464C80.647 221.464 75.8396 220.643 70.2825 218.68C37.6418 207.137 61.9051 167.309 61.9051 167.309M61.8813 162.418C60.2273 162.418 58.6208 163.263 57.7046 164.763C57.1334 165.715 43.663 188.145 50.0531 206.078C52.9328 214.158 59.1801 219.941 68.6403 223.285C74.3878 225.32 79.7903 226.343 84.7167 226.343C93.2963 226.343 98.6511 223.273 101.626 220.691C105.517 217.335 107.742 212.813 107.742 208.291C107.742 201.889 103.125 197.249 96.7472 197.237H96.5925C90.6427 197.237 87.8344 195.999 87.1918 194.833C86.9181 194.333 85.8115 191.37 91.3448 182.553C92.0826 181.386 92.2848 179.959 91.916 178.638C91.5471 177.305 90.6308 176.198 89.3932 175.579L64.0709 162.906C63.3688 162.561 62.6191 162.383 61.8813 162.383V162.418Z" fill="#4A69E4"/>
<path d="M70.6029 200.723C78.2544 210.552 89.5471 212.337 101.09 213.92C104.517 208.493 102.839 202.139 96.7226 202.151C79.1111 202.199 79.1706 192.762 87.191 179.982L69.4487 171.105C64.1176 180.006 63.7368 191.572 70.6029 200.723Z" fill="#DBDBDB"/>
<path d="M197.525 141.856C190.921 141.856 185.066 135.276 184.424 134.526C183.793 133.8 183.639 132.789 184.019 131.908L195.312 105.622C195.395 105.42 195.514 105.217 195.657 105.051C196.407 104.111 214.209 82.0727 230.868 82.0727C231.308 82.0727 231.737 82.0846 232.177 82.1203C252.656 83.5601 256.131 95.6025 256.381 102.659C256.381 102.861 256.405 103.111 256.428 103.385C256.595 105.61 256.928 110.251 253.668 113.749C251.062 116.546 246.766 117.962 240.888 117.962C240.09 117.962 239.257 117.938 238.377 117.891C235.83 117.736 233.664 117.664 231.749 117.664C220.182 117.664 213.34 120.056 208.021 133.098C205.07 140.333 200.703 141.856 197.549 141.856H197.525Z" fill="white"/>
<path d="M230.855 84.5587C231.236 84.5587 231.605 84.5706 231.986 84.5944C247.896 85.7129 253.548 93.6619 253.857 102.729C253.965 105.704 255.964 115.45 240.863 115.45C240.113 115.45 239.328 115.426 238.495 115.379C236.068 115.236 233.818 115.153 231.712 115.153C218.468 115.153 211.209 118.544 205.664 132.145C203.451 137.571 200.476 139.344 197.513 139.344C191.872 139.344 186.303 132.883 186.303 132.883L197.596 106.597C197.596 106.597 215.207 84.5587 230.844 84.5587M230.855 79.5609C213.315 79.5609 195.656 101.028 193.693 103.479C193.407 103.824 193.181 104.217 193.003 104.633L181.71 130.92C180.96 132.681 181.27 134.716 182.519 136.155C183.245 137 189.802 144.354 197.525 144.354C204.617 144.354 208.389 138.749 210.305 134.037C214.696 123.268 219.491 120.162 231.712 120.162C233.58 120.162 235.699 120.234 238.198 120.388C239.114 120.448 240.006 120.472 240.851 120.472C247.455 120.472 252.37 118.782 255.464 115.462C259.474 111.154 259.081 105.788 258.891 103.205C258.879 102.967 258.855 102.753 258.855 102.563C258.379 89.1281 248.717 80.7627 232.331 79.6203C231.843 79.5846 231.343 79.5728 230.844 79.5728L230.855 79.5609Z" fill="#4A69E4"/>
<path d="M214.207 104.443C201.891 111.072 194.549 122.662 189.254 135.68C193.454 139.107 201.165 143.212 205.675 132.158C212.101 116.403 220.835 114.344 238.506 115.391C254.607 116.343 254.214 107.656 253.928 103.741C240.958 99.4456 226.785 98.7435 214.207 104.455V104.443Z" fill="#DBDBDB"/>
<path d="M125.199 192.952C120.653 192.952 115.882 192.762 111.015 192.393C65.6416 188.895 48.3871 178.185 41.9018 169.808C37.7251 164.405 37.8441 159.919 37.9869 158.646L34.4646 48.5983C34.4289 47.6344 34.9644 46.73 35.8211 46.2898C36.1781 46.0994 36.5708 46.0161 36.9635 46.0161C37.499 46.0161 38.0345 46.1946 38.4866 46.5278L75.7681 74.9678L114.37 31.3558C114.835 30.8322 115.489 30.5347 116.179 30.5109C116.203 30.5109 116.227 30.5109 116.251 30.5109C116.917 30.5109 117.56 30.7846 118.036 31.2605L158.197 72.0762L199.203 37.9839C199.667 37.6031 200.226 37.4008 200.797 37.4008C201.166 37.4008 201.535 37.484 201.88 37.6506C202.761 38.0671 203.32 38.9715 203.296 39.9472C203.284 41.0063 201.535 145.878 201.535 150.15C201.535 153.517 197.965 164.108 187.363 173.675C169.716 189.609 143.81 192.952 125.199 192.952Z" fill="white"/>
<path d="M116.238 33.0102L158.018 75.468L200.797 39.9C200.797 39.9 199.036 145.807 199.036 150.15C199.036 154.208 188.052 190.454 125.199 190.454C120.796 190.454 116.131 190.275 111.217 189.895C35.9872 184.1 40.509 158.765 40.509 158.765L36.9867 48.5153L76.1127 78.3596L116.25 33.0102M116.238 28.0004C116.238 28.0004 116.155 28.0004 116.107 28.0004C114.715 28.0361 113.406 28.643 112.49 29.6902L75.4344 71.5649L40.0092 44.5409C39.1168 43.8626 38.0458 43.5175 36.9748 43.5175C36.1895 43.5175 35.4041 43.696 34.6901 44.0768C32.9766 44.9574 31.9175 46.7542 31.977 48.682L35.4874 158.599C35.3446 160.479 35.4636 165.56 39.9378 171.331C49.8145 184.1 73.6732 192.025 110.836 194.881C115.762 195.261 120.605 195.452 125.21 195.452C190.349 195.452 204.057 157.599 204.057 150.15C204.057 145.89 205.795 41.0424 205.818 39.9833C205.854 38.0318 204.736 36.235 202.974 35.3901C202.284 35.0569 201.546 34.9022 200.809 34.9022C199.666 34.9022 198.524 35.2949 197.608 36.0565L158.375 68.6852L119.82 29.5117C118.88 28.5597 117.595 28.0123 116.25 28.0123L116.238 28.0004Z" fill="#4A69E4"/>
<path d="M158.018 75.5387L116.239 33.0809L115.12 34.3422C126.925 51.0969 139.978 64.7577 154.151 80.3937C155.876 78.2994 156.495 77.5497 158.018 75.5268V75.5387Z" fill="#EBEBEB"/>
<path d="M72.2333 81.5957C73.1139 82.274 74.2206 81.0721 75.2558 79.2396L36.6416 49.7761L36.713 51.9062C46.1613 64.5793 60.4408 72.433 72.2333 81.5957Z" fill="#EBEBEB"/>
<path d="M176.534 61.0701C176.165 101.089 175.058 141.119 173.856 181.137C194.086 170.094 198.715 154.03 198.715 151.412C198.715 147.069 200.476 41.1621 200.476 41.1621L176.534 61.0701Z" fill="#DBDBDB"/>
<path d="M164.597 220.929C160.301 220.929 156.362 219.203 153.506 216.074C150.567 212.849 147.283 206.495 148.378 194.512C148.83 189.585 154.887 162.835 170.987 162.835C171.701 162.835 172.427 162.882 173.153 162.99C176.853 163.525 179.793 165.322 181.875 168.344C187.837 176.96 185.29 193.048 182.411 206.09L182.28 206.661C180.495 214.789 172.891 220.917 164.585 220.917L164.597 220.929Z" fill="white"/>
<path d="M171 165.346C171.583 165.346 172.19 165.394 172.809 165.477C188.671 167.762 181.77 197.439 179.866 206.138C178.235 213.539 171.31 218.43 164.622 218.43C156.828 218.43 149.343 211.79 150.89 194.75C151.176 191.549 156.519 165.346 171.012 165.346M171 160.336C165.336 160.336 157.28 163.192 151.057 176.758C147.725 184.052 146.106 191.846 145.892 194.286C144.726 207.173 148.391 214.158 151.675 217.752C155.007 221.405 159.601 223.416 164.61 223.416C174.059 223.416 182.71 216.443 184.744 207.185L184.875 206.614C187.862 193.072 190.456 176.317 183.947 166.905C181.484 163.347 177.878 161.133 173.523 160.503C172.678 160.384 171.833 160.324 171.012 160.324L171 160.336Z" fill="#4A69E4"/>
<path d="M174.903 166C177.557 183.397 173.915 201.472 168.049 217.989C173.523 216.656 178.509 212.253 179.853 206.125C181.674 197.843 188.004 170.557 174.903 166Z" fill="#DBDBDB"/>
<path d="M25.9668 224.248C20.0527 224.248 16.6018 221.832 16.2329 221.547C6.79655 214.074 2.2033 203.352 2.51269 189.632C3.21477 158.645 29.5962 120.602 32.0951 118.806C32.5354 118.496 33.0471 118.33 33.5588 118.33C33.9396 118.33 34.3323 118.413 34.6892 118.603C35.5222 119.02 36.0577 119.877 36.0577 120.817L36.4266 157.182C36.4266 157.801 36.2124 158.396 35.7959 158.86C25.8478 170.105 38.9612 191.56 39.0921 191.774C39.1754 191.905 39.2468 192.048 39.2944 192.19C43.4593 202.912 43.8519 211.242 40.4606 216.942C38.1282 220.869 33.9872 223.391 28.7989 224.058C27.847 224.177 26.895 224.248 25.9549 224.248H25.9668Z" fill="white"/>
<path d="M33.5479 120.842L33.9168 157.207C22.5884 170.011 36.9631 193.096 36.9631 193.096C45.0787 213.98 36.5347 220.548 28.4787 221.584C27.5862 221.703 26.7533 221.75 25.956 221.75C20.6964 221.75 17.7095 219.537 17.7095 219.537C-17.6442 191.502 31.7511 122.139 33.5479 120.842ZM33.5598 115.844C32.5246 115.844 31.5012 116.165 30.6325 116.796C28.443 118.378 20.625 130.195 14.6156 141.749C2.93023 164.216 0.229016 180.173 0.0148234 189.609C-0.306466 204.151 4.59617 215.539 14.6156 223.476C14.6632 223.511 14.7108 223.547 14.7584 223.583C15.1987 223.904 19.2684 226.772 25.9798 226.772C27.0151 226.772 28.086 226.701 29.1332 226.57C35.1068 225.808 39.8904 222.845 42.6273 218.252C46.4352 211.85 46.102 202.782 41.6397 191.311C41.5326 191.025 41.3898 190.74 41.2232 190.478C41.1042 190.288 29.1094 170.237 37.6771 160.551C38.4982 159.622 38.9504 158.421 38.9385 157.183L38.5696 120.818C38.5458 118.95 37.4867 117.248 35.8208 116.403C35.1068 116.046 34.3333 115.868 33.5717 115.868L33.5598 115.844Z" fill="#4A69E4"/>
<path d="M36.9618 193.095C36.9618 193.095 22.5871 170.01 33.9155 157.206L33.6894 134.894C15.6615 157.218 17.4583 194.928 30.1433 221.286C37.6282 219.572 44.5061 212.539 36.9499 193.095H36.9618Z" fill="#DBDBDB"/>
<path d="M72.484 161.61C59.573 161.61 48.6848 151.721 47.6852 139.108C47.1855 132.729 49.2322 126.494 53.4566 121.568C57.7999 116.498 63.8806 113.416 70.5801 112.917C70.6277 112.917 70.6753 112.917 70.7229 112.917C103.959 112.393 136.373 107.002 167.05 96.8878C167.241 96.8283 167.443 96.7807 167.645 96.7688C168.014 96.745 168.371 96.7331 168.728 96.7331C174.737 96.7331 185.15 100.838 187.315 128.291C187.922 136.002 185.994 142.892 181.877 147.699C178.438 151.709 173.619 154.053 167.943 154.482L74.388 161.55C73.7454 161.598 73.1028 161.622 72.4721 161.622L72.484 161.61Z" fill="white"/>
<path d="M168.739 99.2198C180.305 99.2198 183.911 116.772 184.827 128.481C185.779 140.476 180.032 151.055 167.763 151.983L74.2084 159.051C73.6253 159.099 73.0541 159.111 72.4829 159.111C60.9403 159.111 51.0755 150.352 50.183 138.917C49.2311 126.922 58.5009 116.343 70.7694 115.415C103.85 114.892 136.241 109.68 167.846 99.2555C168.144 99.2317 168.441 99.2198 168.739 99.2198ZM168.739 94.2101C168.322 94.2101 167.894 94.222 167.466 94.2577C167.061 94.2934 166.656 94.3648 166.276 94.4957C135.836 104.527 103.672 109.882 70.6861 110.405C70.5909 110.405 70.4838 110.405 70.3886 110.417C63.0227 110.977 56.3351 114.356 51.5515 119.937C46.8869 125.375 44.6378 132.253 45.1852 139.298C46.28 153.208 58.2748 164.108 72.4829 164.108C73.185 164.108 73.8871 164.085 74.5892 164.025L168.144 156.957C174.498 156.481 179.901 153.827 183.78 149.305C188.338 143.986 190.479 136.454 189.813 128.076C188.088 106.241 180.603 94.2101 168.739 94.2101Z" fill="#4A69E4"/>
<path d="M184.826 128.468C183.874 116.473 180.114 98.3147 167.846 99.2428C167.31 99.4213 166.786 99.576 166.251 99.7545C176.842 111.678 180.162 128.754 173.415 143.605C171.665 147.115 168.857 149.769 165.608 152.137L167.774 151.97C180.043 151.042 185.79 140.463 184.838 128.468H184.826Z" fill="#EBEBEB"/>
<path d="M83.2308 148.281C76.4123 148.281 70.9028 144.021 70.4268 138.381C70.2126 135.834 71.0694 133.264 72.8662 131.158C75.1747 128.433 78.7565 126.695 82.6953 126.374C106.649 124.315 131.757 120.484 157.318 114.974C157.425 114.95 157.532 114.938 157.639 114.926C157.853 114.903 158.067 114.903 158.282 114.903C163.767 114.903 167.254 120.424 168.111 130.444C168.325 132.99 167.468 135.56 165.671 137.667C163.363 140.392 159.781 142.129 155.842 142.45L84.5278 148.245C84.0875 148.281 83.6592 148.293 83.2308 148.293V148.281Z" fill="#4A69E4"/>
<path d="M158.281 117.379C163.802 117.379 165.23 126.101 165.611 130.623C166.003 135.264 161.517 139.452 155.627 139.928L84.3125 145.723C83.9436 145.759 83.5747 145.771 83.2177 145.771C77.8034 145.771 73.2697 142.511 72.9008 138.155C72.5081 133.514 76.9943 129.326 82.8846 128.85C107.898 126.708 132.875 122.781 157.828 117.39C157.983 117.379 158.126 117.367 158.269 117.367M158.292 112.381C158.019 112.381 157.733 112.381 157.448 112.416C157.233 112.428 157.007 112.464 156.793 112.512C131.34 117.997 106.327 121.829 82.4681 123.876C77.8867 124.245 73.6862 126.315 70.9493 129.54C68.724 132.17 67.6531 135.383 67.9267 138.596C68.5217 145.545 75.0903 150.793 83.2297 150.793C83.7294 150.793 84.2411 150.769 84.7409 150.733L156.055 144.938C160.66 144.569 164.861 142.499 167.598 139.274C169.823 136.644 170.894 133.431 170.62 130.218C169.3 114.713 162.338 112.393 158.304 112.393L158.292 112.381Z" fill="#4A69E4"/>
</svg>
