<svg width="77" height="14" viewBox="0 0 77 14" fill="none" xmlns="http://www.w3.org/2000/svg">
<path d="M0 1.74784C0 1.45941 0.0462428 1.21137 0.138728 1.00371C0.242775 0.784508 0.375723 0.599917 0.537572 0.449939C0.699422 0.299959 0.884393 0.190358 1.09249 0.121137C1.30058 0.0403789 1.52023 0 1.75145 0C1.98266 0 2.20231 0.0403789 2.4104 0.121137C2.6185 0.190358 2.80347 0.299959 2.96532 0.449939C3.12717 0.599917 3.25434 0.784508 3.34682 1.00371C3.45087 1.21137 3.50289 1.45941 3.50289 1.74784V5.72806L7.57803 0.744128C7.75144 0.536464 7.9422 0.374948 8.15029 0.259579C8.36994 0.144211 8.58959 0.0692211 8.80925 0.0346102C9.04046 0 9.2659 0.00576871 9.48555 0.0519163C9.71676 0.0980632 9.91907 0.178821 10.0925 0.294191C10.289 0.421096 10.4509 0.582612 10.578 0.778739C10.7052 0.974866 10.7861 1.1883 10.8208 1.41904C10.8555 1.63824 10.8439 1.86321 10.7861 2.09394C10.7283 2.32468 10.6127 2.53234 10.4393 2.71693L7.16185 6.36836L12 14H7.97688L4.89017 8.89493L3.50289 10.4351V14H0V1.74784Z" fill="white"/>
<path d="M40 9.18644C40 10.0452 39.8487 10.7797 39.5461 11.3898C39.2436 12 38.8321 12.4972 38.3116 12.8814C37.7912 13.2655 37.1861 13.548 36.4962 13.7288C35.8064 13.9096 35.0741 14 34.2995 14C33.5129 14 32.7383 13.904 31.9758 13.7119C31.2254 13.5311 30.5537 13.2373 29.9607 12.8305C29.3797 12.4124 28.9077 11.8757 28.5446 11.2203C28.1815 10.565 28 9.77401 28 8.84746V5.15254C28 4.21469 28.1815 3.41808 28.5446 2.76271C28.9077 2.10735 29.3858 1.57627 29.9788 1.16949C30.5719 0.762711 31.2496 0.468927 32.0121 0.288136C32.7746 0.0960453 33.5552 0 34.354 0C35.1891 0 35.9516 0.079096 36.6415 0.237288C37.3313 0.39548 37.8517 0.59322 38.2027 0.830509C38.5779 1.0791 38.8381 1.38983 38.9834 1.76271C39.1286 2.12429 39.0923 2.48587 38.8744 2.84746C38.6929 3.14124 38.4508 3.35028 38.1483 3.47458C37.8457 3.59887 37.5371 3.63277 37.2224 3.57627C37.0166 3.54237 36.829 3.49153 36.6596 3.42373C36.5023 3.34463 36.357 3.27684 36.2239 3.22034C35.8003 3.07345 35.177 3 34.354 3C34.0393 3 33.7247 3.05085 33.41 3.15254C33.0953 3.24294 32.8109 3.38418 32.5567 3.57627C32.3026 3.75706 32.0968 3.99435 31.9395 4.28814C31.7821 4.58192 31.7035 4.9209 31.7035 5.30509V8.69491C31.7035 9.09039 31.7761 9.43503 31.9213 9.72881C32.0666 10.0113 32.2602 10.2486 32.5023 10.4407C32.7564 10.6215 33.0348 10.7627 33.3374 10.8644C33.652 10.9548 33.9728 11 34.2995 11C34.6021 11 34.8986 10.9661 35.1891 10.8983C35.4796 10.8192 35.7337 10.7119 35.9516 10.5763C36.1694 10.4294 36.3449 10.2486 36.4781 10.0339C36.6112 9.80791 36.6778 9.54237 36.6778 9.23729V9.0339C36.6778 8.86441 36.6475 8.75706 36.587 8.71186C36.5386 8.66667 36.4297 8.64407 36.2602 8.64407H35.6611C35.3949 8.64407 35.171 8.60452 34.9894 8.52542C34.8079 8.43503 34.6566 8.32203 34.5356 8.18644C34.4266 8.05085 34.3419 7.89831 34.2814 7.72881C34.233 7.55932 34.2088 7.38983 34.2088 7.22034C34.2088 7.05085 34.233 6.88136 34.2814 6.71187C34.3419 6.53107 34.4266 6.37288 34.5356 6.23729C34.6566 6.0904 34.8079 5.97175 34.9894 5.88136C35.1831 5.79096 35.407 5.74576 35.6611 5.74576H37.3132C37.8457 5.74576 38.2874 5.79096 38.6384 5.88136C38.9894 5.96045 39.2617 6.10169 39.4554 6.30508C39.6611 6.49717 39.8003 6.75706 39.8729 7.08475C39.9576 7.40113 40 7.79661 40 8.27119V9.18644Z" fill="white"/>
<path d="M63.4814 1.67797C63.4814 1.39548 63.5269 1.14689 63.618 0.932203C63.7205 0.717514 63.8515 0.542373 64.0109 0.406779C64.1703 0.271187 64.3525 0.169492 64.5575 0.101695C64.7738 0.0338982 65.0016 0 65.2407 0C65.7189 0 66.1289 0.135593 66.4705 0.406779C66.8235 0.677966 67 1.10169 67 1.67797V9.01695C67 9.9661 66.8292 10.7571 66.4876 11.3898C66.146 12.0226 65.7076 12.5367 65.1724 12.9322C64.6372 13.3164 64.045 13.5876 63.396 13.7458C62.7469 13.9153 62.1149 14 61.5 14C60.8851 14 60.2531 13.9153 59.604 13.7458C58.955 13.5876 58.3628 13.3164 57.8276 12.9322C57.2924 12.5367 56.854 12.0226 56.5124 11.3898C56.1708 10.7571 56 9.9661 56 9.01695V1.67797C56 1.39548 56.0455 1.14689 56.1366 0.932203C56.2391 0.717514 56.3701 0.542373 56.5295 0.406779C56.6889 0.271187 56.8711 0.169492 57.0761 0.101695C57.2924 0.0338982 57.5202 0 57.7593 0C58.2376 0 58.6475 0.135593 58.9891 0.406779C59.3421 0.677966 59.5186 1.10169 59.5186 1.67797V9.15254C59.5186 9.46893 59.5756 9.74576 59.6894 9.98305C59.8147 10.2203 59.9741 10.4181 60.1677 10.5763C60.3613 10.7345 60.5719 10.8531 60.7997 10.9322C61.0388 11.0113 61.2723 11.0508 61.5 11.0508C61.7277 11.0508 61.9555 11.0113 62.1832 10.9322C62.4224 10.8531 62.6387 10.7345 62.8323 10.5763C63.0259 10.4181 63.1796 10.2203 63.2935 9.98305C63.4187 9.74576 63.4814 9.46893 63.4814 9.15254V1.67797Z" fill="white"/>
<path d="M54.4844 4.15652C54.4844 4.70145 54.3469 5.2058 54.0719 5.66957C53.8083 6.13333 53.4016 6.52174 52.8516 6.83478C53.5964 7.13623 54.1406 7.55942 54.4844 8.10435C54.8281 8.63768 55 9.24638 55 9.93044V9.94783C55 10.6899 54.8625 11.3217 54.5875 11.8435C54.324 12.3536 53.9516 12.771 53.4703 13.0957C53.0005 13.4087 52.4391 13.6406 51.7859 13.7913C51.1443 13.9304 50.4396 14 49.6719 14H46.6812C46.1656 14 45.7359 13.9536 45.3922 13.8609C45.0484 13.7565 44.7734 13.5942 44.5672 13.3739C44.3609 13.1536 44.212 12.8696 44.1203 12.5217C44.0401 12.1739 44 11.7507 44 11.2522V2.74783C44 2.24928 44.0401 1.82609 44.1203 1.47826C44.212 1.13043 44.3609 0.846377 44.5672 0.626087C44.7734 0.405797 45.0484 0.249275 45.3922 0.156522C45.7359 0.0521739 46.1656 0 46.6812 0H49.1906C49.9813 0 50.6974 0.0927535 51.3391 0.27826C51.9922 0.452174 52.5479 0.713044 53.0062 1.06087C53.476 1.3971 53.837 1.82029 54.0891 2.33043C54.3526 2.82898 54.4844 3.4029 54.4844 4.05217V4.15652ZM47.4891 8.41739V10.5391C47.4891 10.7478 47.5234 10.887 47.5922 10.9565C47.6609 11.0145 47.7927 11.0435 47.9875 11.0435H49.8781C50.451 11.0435 50.8635 10.9159 51.1156 10.6609C51.3792 10.3942 51.5109 10.1043 51.5109 9.79131V9.66957C51.5109 9.35652 51.3792 9.07246 51.1156 8.81739C50.8635 8.55072 50.451 8.41739 49.8781 8.41739H47.4891ZM47.9875 2.95652C47.7927 2.95652 47.6609 2.9913 47.5922 3.06087C47.5234 3.11884 47.4891 3.25217 47.4891 3.46087V5.58261H49.3625C49.649 5.58261 49.8953 5.54783 50.1016 5.47826C50.3078 5.3971 50.474 5.29855 50.6 5.18261C50.7375 5.05507 50.8349 4.92174 50.8922 4.78261C50.9609 4.63188 50.9953 4.48116 50.9953 4.33043V4.2087C50.9953 3.89565 50.8635 3.61159 50.6 3.35652C50.3479 3.08985 49.9354 2.95652 49.3625 2.95652H47.9875Z" fill="white"/>
<path d="M23.9435 8.41875V1.61899C23.9435 1.09637 24.0947 0.698722 24.3969 0.42605C24.7104 0.142017 25.0687 0 25.4718 0C25.8748 0 26.2275 0.142017 26.5298 0.42605C26.8433 0.698722 27 1.09637 27 1.61899V12.3554C27 12.6168 26.9496 12.844 26.8489 13.0371C26.7481 13.2303 26.6193 13.395 26.4626 13.5313C26.3059 13.6677 26.1267 13.7756 25.9252 13.8551C25.7349 13.9347 25.5445 13.9801 25.3542 13.9915C24.9511 14.0256 24.5369 13.9574 24.1114 13.787C23.686 13.6279 23.3669 13.3666 23.1542 13.003L19.0565 5.6409V13.787H16V1.73828C16 1.47697 16.0504 1.24407 16.1511 1.03956C16.2519 0.835058 16.3807 0.664638 16.5374 0.528302C16.7053 0.380605 16.8901 0.266991 17.0916 0.187462C17.2931 0.107933 17.4891 0.0568066 17.6794 0.0340836C18.0824 -0.0113619 18.4911 0.0511257 18.9053 0.221546C19.3196 0.391966 19.6331 0.658957 19.8458 1.02252L23.9435 8.41875Z" fill="white"/>
<path d="M12 1.73053C12 1.13061 12.149 0.692212 12.4471 0.415327C12.7452 0.138442 13.0962 0 13.5 0C13.9038 0 14.2548 0.138442 14.5529 0.415327C14.851 0.692212 15 1.13061 15 1.73053V14H12V1.73053Z" fill="white"/>
<path d="M70.7492 4.02182C70.7376 4.33859 70.9225 4.6101 71.3039 4.83636C71.6853 5.06263 72.2226 5.28889 72.916 5.51515L73.7654 5.80364C74.2739 5.98465 74.7303 6.21091 75.1348 6.48242C75.5508 6.75394 75.9033 7.07636 76.1922 7.4497C76.4811 7.81172 76.6949 8.22465 76.8336 8.68848C76.9723 9.14101 77.0243 9.63879 76.9896 10.1818C76.9087 11.3923 76.406 12.3313 75.4815 12.9988C74.5686 13.6663 73.3205 14 71.7373 14C70.963 14 70.2176 13.9152 69.5011 13.7455C68.7846 13.5871 68.1895 13.3269 67.7157 12.9648C67.5539 12.8291 67.4152 12.6764 67.2996 12.5067C67.1841 12.3257 67.0974 12.139 67.0396 11.9467C66.9934 11.7543 66.9876 11.5564 67.0223 11.3527C67.057 11.1378 67.1379 10.9341 67.265 10.7418C67.3921 10.5495 67.5712 10.4024 67.8023 10.3006C68.0335 10.1988 68.2646 10.1422 68.4957 10.1309C68.7962 10.1196 69.0331 10.1648 69.2064 10.2667C69.3913 10.3685 69.5647 10.4646 69.7265 10.5552C69.9229 10.6796 70.1772 10.7871 70.4892 10.8776C70.8012 10.9568 71.2519 10.9964 71.8413 10.9964C72.3266 10.9964 72.7022 10.9115 72.968 10.7418C73.2338 10.5721 73.3725 10.3006 73.384 9.92727C73.384 9.76889 73.3205 9.61616 73.1934 9.46909C73.0662 9.32202 72.8813 9.18626 72.6386 9.06182C72.4075 8.93737 72.136 8.81859 71.8239 8.70545C71.5119 8.58101 71.1768 8.46222 70.8185 8.34909C70.6799 8.30384 70.5296 8.25293 70.3678 8.19636C70.2176 8.1398 70.0905 8.08889 69.9865 8.04364C69.3278 7.77212 68.7962 7.43838 68.3917 7.04242C67.9872 6.63515 67.681 6.1996 67.473 5.73576C67.2765 5.26061 67.1725 4.77414 67.161 4.27636C67.161 3.77859 67.2361 3.30909 67.3863 2.86788C67.6868 1.95152 68.2415 1.24444 69.0504 0.746667C69.8709 0.248889 70.8763 0 72.0666 0C72.5173 0 72.9102 0.0226263 73.2454 0.0678789C73.592 0.101819 73.8925 0.152728 74.1468 0.220606C74.4125 0.277172 74.6379 0.350707 74.8228 0.441212C75.0192 0.520404 75.1984 0.599596 75.3602 0.678788C75.7646 0.893738 76.0767 1.19354 76.2962 1.57818C76.5273 1.96283 76.5794 2.35879 76.4522 2.76606C76.3367 3.11677 76.1402 3.36566 75.8629 3.51273C75.5971 3.6598 75.2966 3.73333 74.9615 3.73333C74.8343 3.73333 74.6899 3.71071 74.5281 3.66545C74.3663 3.6202 74.245 3.56929 74.1641 3.51273C73.9561 3.37697 73.6903 3.25818 73.3667 3.15636C73.0431 3.05455 72.6213 3.00364 72.1013 3.00364C71.6853 3.00364 71.3559 3.08849 71.1132 3.25818C70.8821 3.41657 70.7608 3.67111 70.7492 4.02182Z" fill="white"/>
</svg>
