<svg width="64" height="64" viewBox="0 0 64 64" fill="none" xmlns="http://www.w3.org/2000/svg">
<rect width="64" height="64" rx="12" fill="#4A69E4"/>
<path fill-rule="evenodd" clip-rule="evenodd" d="M50.8183 20.4101C50.7017 20.3395 50.5603 20.3419 50.4459 20.4174L41.3205 26.4304L32.1952 19.0584C32.0785 18.9805 31.9305 18.9805 31.8138 19.0584L22.6884 26.4304L13.5608 20.4174C13.4464 20.3419 13.3051 20.3395 13.1884 20.4101C13.0718 20.4807 13 20.6147 13 20.7583V37.0705C13 39.2819 13.2602 41.1328 13.7694 42.5745C14.2876 44.0382 15.0279 45.2072 15.9655 46.0474C16.9009 46.8851 18.0293 47.4769 19.3214 47.8082C19.613 47.8837 19.9136 47.947 20.2187 48.0054C20.1828 47.8155 20.1648 47.6182 20.1648 47.4185C20.1648 47.3406 20.1693 47.2626 20.176 47.1847C20.176 47.1847 21.4704 50 22.9105 50C24.4224 50 25.6495 47.5037 25.6562 47.4185C25.6562 47.4331 25.654 47.4794 25.6517 47.4964H38.5435C38.5435 47.4777 38.5414 47.4363 38.5392 47.4202C38.5601 47.5306 39.7816 50 41.2847 50C42.7181 50 44.0191 47.1555 44.0191 47.1555C44.0259 47.2431 44.0303 47.3284 44.0303 47.4185C44.0303 47.6085 44.0124 47.796 43.981 47.9762C44.2367 47.9251 44.488 47.8715 44.7302 47.8082C46.0223 47.4769 47.1439 46.8827 48.0614 46.0449C48.9811 45.2047 49.7124 44.0382 50.2306 42.5745C50.742 41.1328 51 39.2819 51 37.0705V20.7583C51 20.6147 50.9282 20.4807 50.8116 20.4101H50.8183ZM38.665 44.6558H25.371C24.1578 44.6558 23.0415 44.5568 22.047 44.361C21.0277 44.1605 20.1369 43.798 19.3949 43.2857C18.6372 42.7638 18.0419 42.0341 17.6224 41.1207C17.2075 40.2194 16.9977 39.0692 16.9977 37.6967C16.9977 36.3242 17.2075 35.174 17.6224 34.2727C18.0419 33.3593 18.6372 32.632 19.3949 32.11C20.1369 31.5977 21.0299 31.2377 22.0492 31.0444C23.0415 30.8559 24.16 30.7593 25.371 30.7593H38.6628C39.8738 30.7593 40.9901 30.8559 41.9846 31.0444C43.0062 31.2377 43.8924 31.5977 44.6231 32.1124C45.365 32.6344 45.9536 33.3617 46.3731 34.2727C46.788 35.174 46.9977 36.3242 46.9977 37.6967C46.9977 39.0692 46.788 40.2194 46.3731 41.1207C45.9536 42.0341 45.365 42.7614 44.6231 43.2833C43.8947 43.7956 43.0084 44.1581 41.9891 44.361C40.9946 44.5568 39.8783 44.6558 38.665 44.6558ZM25.3733 31.5808C24.2074 31.5808 23.1339 31.6727 22.1845 31.8515C21.2667 32.0254 20.4661 32.3444 19.8099 32.7987C19.1717 33.2409 18.6665 33.8595 18.308 34.6351C17.9471 35.4229 17.7622 36.4522 17.7622 37.6967C17.7622 38.9411 17.9449 39.9705 18.308 40.7582C18.6665 41.5363 19.1717 42.1549 19.8099 42.5971C20.4661 43.0514 21.2667 43.3727 22.1868 43.554C23.1339 43.7424 24.2074 43.8367 25.3733 43.8367H38.665C39.8309 43.8367 40.9021 43.7424 41.8515 43.554C42.7716 43.3727 43.5632 43.0514 44.2059 42.5971C44.8328 42.1573 45.3312 41.5387 45.6898 40.7582C46.0506 39.9705 46.2355 38.9411 46.2355 37.6967C46.2355 36.4522 46.0528 35.4229 45.6898 34.6351C45.3312 33.8546 44.8328 33.236 44.2059 32.7963C43.5632 32.3444 42.7716 32.0254 41.8538 31.8515C40.9044 31.6702 39.8309 31.5808 38.665 31.5808H25.3733ZM23.7934 40.3792H40.1417C40.9522 40.3792 41.6307 40.186 42.1774 39.7996C42.7241 39.4132 42.9975 38.5356 42.9975 37.1723C42.9975 35.8089 42.7241 34.9341 42.1774 34.5449C41.6307 34.1585 40.9522 33.9654 40.1417 33.9654H23.7934C23.0237 33.9654 22.3642 34.1585 21.8175 34.5449C21.2708 34.9341 20.9975 35.8089 20.9975 37.1723C20.9975 38.5356 21.2708 39.4132 21.8175 39.7996C22.3666 40.186 23.026 40.3792 23.7934 40.3792Z" fill="white"/>
<path d="M14 15.2632C14 15.171 13.9798 15.1035 13.9373 15.063C13.897 15.0202 13.8298 15 13.738 15H12.262C12.1702 15 12.103 15.0202 12.0627 15.063C12.0202 15.1035 12 15.171 12 15.2632V16.739C12 16.8313 12.0202 16.8988 12.0605 16.9393C12.103 16.9798 12.168 17 12.2598 17H13.738C13.8298 17 13.897 16.9798 13.9373 16.9393C13.9776 16.8965 14 16.8313 14 16.739V15.2632Z" fill="white"/>
<path d="M52 15.2632C52 15.171 51.9798 15.1035 51.9372 15.063C51.8969 15.0202 51.8296 15 51.7377 15H50.2601C50.1682 15 50.1009 15.0202 50.0605 15.063C50.0202 15.1035 50 15.171 50 15.2632V16.739C50 16.8313 50.0202 16.8988 50.0605 16.9393C50.1031 16.9798 50.1682 17 50.2601 17H51.7377C51.8296 17 51.8969 16.9798 51.9372 16.9393C51.9776 16.8965 52 16.8313 52 16.739V15.2632Z" fill="white"/>
<path d="M33 13.2632C33 13.171 32.9798 13.1035 32.9372 13.063C32.8969 13.0202 32.8296 13 32.7377 13H31.2601C31.1682 13 31.1009 13.0202 31.0605 13.063C31.0202 13.1035 31 13.171 31 13.2632V14.739C31 14.8313 31.0202 14.8988 31.0605 14.9393C31.1031 14.9798 31.1682 15 31.2601 15H32.7377C32.8296 15 32.8969 14.9798 32.9372 14.9393C32.9776 14.8965 33 14.8313 33 14.739V13.2632Z" fill="white"/>
</svg>
